<svg width="155" height="31" viewBox="0 0 155 31" fill="none" xmlns="http://www.w3.org/2000/svg">
<path d="M1.16 13.44L0.96 5.88C0.96 4.68 0.826667 3.73333 0.56 3.04C0.293333 2.34667 0.16 1.97333 0.16 1.92C0.16 1.33333 1.05333 0.879998 2.84 0.559999C4.65333 0.239998 6.02667 0.079998 6.96 0.079998C7.92 0.079998 8.44 0.306665 8.52 0.759999C10.2 8.25333 11.6133 13.4533 12.76 16.36C12.8933 16.68 13.0267 16.84 13.16 16.84C13.32 16.84 13.4533 16.72 13.56 16.48C15.3467 11.44 16.92 6.45333 18.28 1.52C18.3867 1.2 18.6533 0.959998 19.08 0.799998C19.5067 0.613332 20.24 0.439999 21.28 0.279998C22.3467 0.119998 23.4 0.0399985 24.44 0.0399985C25.48 0.0399985 26 0.253332 26 0.68C26 0.706666 25.96 0.919999 25.88 1.32C25.8 1.69333 25.72 2.16 25.64 2.72C25.56 3.28 25.4667 3.96 25.36 4.76C25.12 6.6 24.96 8.72 24.88 11.12C24.8267 13.4933 24.8 15.88 24.8 18.28L24.88 22.48C24.88 24.4 25 25.7733 25.24 26.6C25.5067 27.4 25.64 27.8667 25.64 28C25.64 28.1067 25.5467 28.24 25.36 28.4C24.5333 29.0667 23.28 29.4 21.6 29.4C20.5333 29.4 19.9333 29.04 19.8 28.32C19.72 27.9467 19.68 27.36 19.68 26.56C19.68 25.7333 19.76 23.2267 19.92 19.04C20.08 14.8533 20.16 11.8133 20.16 9.92C20.16 8 20.0533 7.04 19.84 7.04C19.8133 7.04 19.8 7.05333 19.8 7.08C19.8 7.08 19.76 7.09333 19.68 7.12C19.6 7.14667 19.3867 7.56 19.04 8.36C18.72 9.16 18.0667 11.1333 17.08 14.28C16.0933 17.4267 15.2 20.3733 14.4 23.12C13.6 25.84 13.16 27.3067 13.08 27.52C12.7867 28.24 12.2267 28.6 11.4 28.6C11 28.6 10.68 28.4533 10.44 28.16C9.58667 24.2133 8.06667 18.5733 5.88 11.24L4.76 7.6C4.70667 7.46667 4.65333 7.4 4.6 7.4C4.46667 7.4 4.37333 7.49333 4.32 7.68C4.21333 9.41333 4.16 12.8267 4.16 17.92C4.16 22.9867 4.34667 26.1867 4.72 27.52C4.74667 27.5733 4.76 27.6533 4.76 27.76C4.76 28.32 4.32 28.7333 3.44 29C2.56 29.24 1.76 29.36 1.04 29.36C0.346667 29.36 1.49012e-08 29.2 1.49012e-08 28.88C1.49012e-08 28.8533 0.0666667 28.64 0.2 28.24C0.6 26.88 0.853333 24.9067 0.96 22.32C1.09333 19.7333 1.16 16.7733 1.16 13.44ZM41.3725 17L41.2925 22.12C41.2925 25.6667 41.6792 27.8 42.4525 28.52C42.5592 28.6267 42.6125 28.7467 42.6125 28.88C42.6125 29.28 41.7458 29.48 40.0125 29.48C38.3058 29.48 37.3992 28.9733 37.2925 27.96C37.2658 27.72 37.2525 27.2267 37.2525 26.48L37.4125 20.08C37.4125 19.8933 37.3058 19.8 37.0925 19.8C35.8125 19.8 34.6125 20.16 33.4925 20.88C32.3725 21.6 31.8125 22.52 31.8125 23.64C31.8125 24.2267 31.9725 24.72 32.2925 25.12C32.6125 25.52 32.9992 25.72 33.4525 25.72C33.9325 25.72 34.3192 25.6267 34.6125 25.44C34.9325 25.2533 35.1192 25.1467 35.1725 25.12C35.6258 25.1733 35.8525 25.6533 35.8525 26.56C35.8525 27.44 35.4392 28.16 34.6125 28.72C33.7858 29.2533 32.9192 29.52 32.0125 29.52C31.1058 29.52 30.3192 29.36 29.6525 29.04C29.0125 28.72 28.5458 28.36 28.2525 27.96C27.9592 27.56 27.7192 27.1067 27.5325 26.6C27.3458 25.9867 27.2525 25.4533 27.2525 25C27.2525 23.1333 27.8392 21.64 29.0125 20.52C30.1858 19.4 31.6925 18.6 33.5325 18.12C35.9592 17.64 37.2258 17.2 37.3325 16.8C37.4125 16.5067 37.4525 16.0133 37.4525 15.32C37.4525 13.9067 36.7325 13.2 35.2925 13.2C34.6792 13.2 34.1325 13.4 33.6525 13.8C33.1725 14.1733 32.9325 14.6533 32.9325 15.24L33.1725 16.2C33.1192 16.6533 32.6392 16.92 31.7325 17L31.2925 17.04C30.4925 17.04 29.8525 16.84 29.3725 16.44C28.9192 16.04 28.6925 15.5067 28.6925 14.84C28.6925 14.4133 28.8258 13.9467 29.0925 13.44C29.3858 12.9067 29.7458 12.48 30.1725 12.16C30.5992 11.84 31.2525 11.56 32.1325 11.32C33.0392 11.0533 33.9058 10.92 34.7325 10.92C35.5592 10.92 36.1992 10.9467 36.6525 11C37.1058 11.0533 37.7192 11.1867 38.4925 11.4C39.2925 11.5867 39.9458 11.96 40.4525 12.52C40.9858 13.08 41.2658 13.68 41.2925 14.32C41.3458 14.9333 41.3725 15.8267 41.3725 17ZM55.9538 23.52C55.9538 24.6667 55.7271 25.6667 55.2738 26.52C54.8471 27.3733 54.3538 28 53.7938 28.4C53.2338 28.8 52.5671 29.12 51.7938 29.36C50.7804 29.68 49.8604 29.84 49.0338 29.84C47.3004 29.84 45.8604 29.5067 44.7138 28.84C43.5671 28.1467 42.9938 27.0533 42.9938 25.56C42.9938 24.68 43.2338 23.96 43.7138 23.4C44.4604 22.5733 45.3538 22.16 46.3938 22.16C46.7138 22.16 46.8738 22.3067 46.8738 22.6C46.8738 22.6267 46.8071 22.84 46.6738 23.24C46.5671 23.6133 46.5138 24.0933 46.5138 24.68C46.5138 25.2667 46.7404 25.7867 47.1938 26.24C47.6738 26.6933 48.2471 26.92 48.9138 26.92C49.5804 26.92 50.1138 26.8133 50.5138 26.6C50.9138 26.36 51.1938 26.0667 51.3538 25.72C51.5938 25.24 51.7138 24.7867 51.7138 24.36C51.7138 23.5867 51.3271 22.92 50.5538 22.36C49.7804 21.8 48.9271 21.36 47.9938 21.04C47.0604 20.72 46.2071 20.1867 45.4338 19.44C44.6604 18.6933 44.2738 17.76 44.2738 16.64C44.2738 14.72 44.8738 13.28 46.0738 12.32C47.3004 11.36 48.9538 10.88 51.0338 10.88C51.9404 10.88 52.8871 11.0133 53.8738 11.28C54.8871 11.52 55.3938 11.9467 55.3938 12.56C55.3938 13.1467 55.2871 13.6933 55.0738 14.2C54.8871 14.7067 54.6471 14.96 54.3537 14.96C54.1938 14.96 54.0871 14.9067 54.0338 14.8C53.9804 14.6667 53.8871 14.52 53.7538 14.36C53.6204 14.2 53.3004 14 52.7938 13.76C52.2871 13.4933 51.8471 13.36 51.4738 13.36C51.1271 13.36 50.8871 13.3733 50.7538 13.4C50.6471 13.4 50.4471 13.44 50.1538 13.52C49.8604 13.5733 49.5938 13.6667 49.3538 13.8C48.7404 14.1467 48.4338 14.6533 48.4338 15.32C48.4338 15.7467 48.5271 16.0667 48.7138 16.28C48.9004 16.4667 49.0471 16.6133 49.1538 16.72C49.2604 16.8267 49.4471 16.96 49.7138 17.12C49.9804 17.2533 50.1671 17.3467 50.2738 17.4C50.3804 17.4533 50.6204 17.5733 50.9938 17.76C51.3671 17.92 51.6071 18.0267 51.7138 18.08C54.5404 19.4133 55.9538 21.2267 55.9538 23.52ZM70.6113 11L70.6513 16L70.4913 22.92C70.5179 23.0267 70.5579 23.08 70.6113 23.08C70.6646 23.08 70.7046 23.0533 70.7313 23C71.2646 22.2533 71.9179 21.88 72.6913 21.88C73.4913 21.88 73.8913 22.04 73.8913 22.36C73.8913 23.3733 74.0779 24.16 74.4513 24.72C74.8513 25.2533 75.3979 25.52 76.0913 25.52C76.8113 25.52 77.4913 25.04 78.1313 24.08C78.7979 23.12 79.1313 21.84 79.1313 20.24C79.1313 19.7067 79.0246 19.0667 78.8113 18.32C78.3846 16.8267 77.5846 15.8267 76.4113 15.32C75.5579 14.9733 74.1713 14.8 72.2513 14.8C72.0379 14.8 71.9313 14.6533 71.9313 14.36C71.9313 12.8667 72.1979 12.0933 72.7313 12.04C73.4513 12.04 74.2112 11.8533 75.0113 11.48C76.6113 10.7333 77.4113 9.2 77.4113 6.88C77.4113 4.37333 75.9713 3.12 73.0913 3.12L71.8513 3.2C71.3713 3.30667 71.1046 3.50667 71.0513 3.8V3.92C70.7579 4.98667 70.6113 7.34667 70.6113 11ZM64.7313 29.56L64.8113 29.12C65.0779 28.64 65.3046 26.6933 65.4913 23.28C65.6779 19.84 65.7713 16.64 65.7713 13.68C65.7713 10.6933 65.7046 8.30667 65.5713 6.52C65.4646 4.70666 65.1446 3.4 64.6113 2.6C64.5046 2.46667 64.4513 2.30667 64.4513 2.12C64.4513 1.93333 64.6113 1.77333 64.9313 1.64C67.1179 0.786666 70.0913 0.359999 73.8513 0.359999C74.7846 0.359999 75.7979 0.493332 76.8913 0.759999C77.9846 0.999999 78.8779 1.30667 79.5713 1.68C80.2913 2.05333 80.9313 2.62667 81.4913 3.4C82.0779 4.17333 82.4113 5.09333 82.4913 6.16C82.4913 10.0267 80.8913 12.2533 77.6913 12.84C77.5313 12.8933 77.4513 12.96 77.4513 13.04C77.4513 13.0933 77.5179 13.16 77.6513 13.24C79.3046 13.5067 80.6913 14.1733 81.8113 15.24C82.3713 15.7467 82.8779 16.5333 83.3313 17.6C83.7846 18.6667 84.0113 19.8933 84.0113 21.28C84.0113 23.0667 83.4913 24.76 82.4513 26.36C81.5979 27.6667 80.3579 28.6 78.7313 29.16C77.8246 29.48 76.8113 29.64 75.6913 29.64C72.8913 29.64 71.1179 28.7467 70.3713 26.96C70.3446 26.88 70.3046 26.84 70.2513 26.84L70.0913 27C69.5313 28.8667 67.9313 29.84 65.2913 29.92C64.9179 29.92 64.7313 29.8 64.7313 29.56ZM98.9506 17L98.8706 22.12C98.8706 25.6667 99.2573 27.8 100.031 28.52C100.137 28.6267 100.191 28.7467 100.191 28.88C100.191 29.28 99.324 29.48 97.5906 29.48C95.884 29.48 94.9773 28.9733 94.8706 27.96C94.844 27.72 94.8306 27.2267 94.8306 26.48L94.9906 20.08C94.9906 19.8933 94.884 19.8 94.6706 19.8C93.3906 19.8 92.1906 20.16 91.0706 20.88C89.9506 21.6 89.3906 22.52 89.3906 23.64C89.3906 24.2267 89.5506 24.72 89.8706 25.12C90.1906 25.52 90.5773 25.72 91.0306 25.72C91.5106 25.72 91.8973 25.6267 92.1906 25.44C92.5106 25.2533 92.6973 25.1467 92.7506 25.12C93.204 25.1733 93.4306 25.6533 93.4306 26.56C93.4306 27.44 93.0173 28.16 92.1906 28.72C91.364 29.2533 90.4973 29.52 89.5906 29.52C88.684 29.52 87.8973 29.36 87.2306 29.04C86.5906 28.72 86.124 28.36 85.8306 27.96C85.5373 27.56 85.2973 27.1067 85.1106 26.6C84.924 25.9867 84.8306 25.4533 84.8306 25C84.8306 23.1333 85.4173 21.64 86.5906 20.52C87.764 19.4 89.2706 18.6 91.1106 18.12C93.5373 17.64 94.804 17.2 94.9106 16.8C94.9906 16.5067 95.0306 16.0133 95.0306 15.32C95.0306 13.9067 94.3106 13.2 92.8706 13.2C92.2573 13.2 91.7106 13.4 91.2306 13.8C90.7506 14.1733 90.5106 14.6533 90.5106 15.24L90.7506 16.2C90.6973 16.6533 90.2173 16.92 89.3106 17L88.8706 17.04C88.0706 17.04 87.4306 16.84 86.9506 16.44C86.4973 16.04 86.2706 15.5067 86.2706 14.84C86.2706 14.4133 86.404 13.9467 86.6706 13.44C86.964 12.9067 87.324 12.48 87.7506 12.16C88.1773 11.84 88.8306 11.56 89.7106 11.32C90.6173 11.0533 91.484 10.92 92.3106 10.92C93.1373 10.92 93.7773 10.9467 94.2306 11C94.684 11.0533 95.2973 11.1867 96.0706 11.4C96.8706 11.5867 97.524 11.96 98.0306 12.52C98.564 13.08 98.844 13.68 98.8706 14.32C98.924 14.9333 98.9506 15.8267 98.9506 17ZM113.572 18.28L113.732 19.68C113.732 20.1867 113.252 20.44 112.292 20.44C110.345 20.44 109.372 19.7067 109.372 18.24C109.372 17.8933 109.465 17.4133 109.652 16.8C109.839 16.1867 109.932 15.6533 109.932 15.2C109.932 14.7467 109.799 14.36 109.532 14.04C109.265 13.6933 108.879 13.52 108.372 13.52C107.865 13.52 107.425 13.7067 107.052 14.08C106.705 14.4267 106.492 14.7867 106.412 15.16L106.252 15.72C106.092 16.5467 106.012 17.9333 106.012 19.88C106.012 21.8 106.039 23.32 106.092 24.44C106.145 25.5333 106.199 26.2933 106.252 26.72C106.305 27.12 106.332 27.36 106.332 27.44C106.332 28.1067 105.919 28.64 105.092 29.04C104.265 29.4667 103.439 29.68 102.612 29.68C101.785 29.68 101.372 29.5067 101.372 29.16L101.572 27.92C101.945 25.6 102.132 22.5733 102.132 18.84C102.132 15.1067 101.999 12.5733 101.732 11.24C101.732 10.92 102.012 10.76 102.572 10.76C104.012 10.76 104.972 11.2533 105.452 12.24C105.479 12.3467 105.519 12.4 105.572 12.4C105.652 12.4 105.839 12.28 106.132 12.04C107.012 11.32 108.052 10.96 109.252 10.96C109.999 10.96 110.745 11.1067 111.492 11.4C113.012 12.0133 113.772 13.2933 113.772 15.24L113.572 18.28ZM128.013 17L127.933 22.12C127.933 25.6667 128.32 27.8 129.093 28.52C129.2 28.6267 129.253 28.7467 129.253 28.88C129.253 29.28 128.386 29.48 126.653 29.48C124.946 29.48 124.04 28.9733 123.933 27.96C123.906 27.72 123.893 27.2267 123.893 26.48L124.053 20.08C124.053 19.8933 123.946 19.8 123.733 19.8C122.453 19.8 121.253 20.16 120.133 20.88C119.013 21.6 118.453 22.52 118.453 23.64C118.453 24.2267 118.613 24.72 118.933 25.12C119.253 25.52 119.64 25.72 120.093 25.72C120.573 25.72 120.96 25.6267 121.253 25.44C121.573 25.2533 121.76 25.1467 121.813 25.12C122.266 25.1733 122.493 25.6533 122.493 26.56C122.493 27.44 122.08 28.16 121.253 28.72C120.426 29.2533 119.56 29.52 118.653 29.52C117.746 29.52 116.96 29.36 116.293 29.04C115.653 28.72 115.186 28.36 114.893 27.96C114.6 27.56 114.36 27.1067 114.173 26.6C113.986 25.9867 113.893 25.4533 113.893 25C113.893 23.1333 114.48 21.64 115.653 20.52C116.826 19.4 118.333 18.6 120.173 18.12C122.6 17.64 123.866 17.2 123.973 16.8C124.053 16.5067 124.093 16.0133 124.093 15.32C124.093 13.9067 123.373 13.2 121.933 13.2C121.32 13.2 120.773 13.4 120.293 13.8C119.813 14.1733 119.573 14.6533 119.573 15.24L119.813 16.2C119.76 16.6533 119.28 16.92 118.373 17L117.933 17.04C117.133 17.04 116.493 16.84 116.013 16.44C115.56 16.04 115.333 15.5067 115.333 14.84C115.333 14.4133 115.466 13.9467 115.733 13.44C116.026 12.9067 116.386 12.48 116.813 12.16C117.24 11.84 117.893 11.56 118.773 11.32C119.68 11.0533 120.546 10.92 121.373 10.92C122.2 10.92 122.84 10.9467 123.293 11C123.746 11.0533 124.36 11.1867 125.133 11.4C125.933 11.5867 126.586 11.96 127.093 12.52C127.626 13.08 127.906 13.68 127.933 14.32C127.986 14.9333 128.013 15.8267 128.013 17ZM129.834 13.4L129.954 11.8C129.981 11.56 130.168 11.44 130.514 11.44H131.914L131.754 8.24V8.08C131.754 7.46667 132.221 6.88 133.154 6.32C134.088 5.76 134.941 5.48 135.714 5.48C135.954 5.48 136.074 5.58667 136.074 5.8V5.84C135.968 6.56 135.861 8.41333 135.754 11.4C136.928 11.4 137.674 11.3733 137.994 11.32C138.314 11.2667 138.488 11.24 138.514 11.24C138.701 11.24 138.794 11.4 138.794 11.72C138.794 12.04 138.648 12.4533 138.354 12.96C138.061 13.44 137.741 13.6933 137.394 13.72H135.714C135.688 14.6267 135.674 16.16 135.674 18.32C135.674 20.4533 135.688 22.2133 135.714 23.6C135.768 24.9867 135.821 26.04 135.874 26.76C135.928 27.4533 135.981 28.0133 136.034 28.44C136.114 28.8667 136.168 29.1733 136.194 29.36C136.248 29.5467 136.274 29.6667 136.274 29.72C136.274 29.9867 136.101 30.1333 135.754 30.16C134.714 30.16 133.674 30.0133 132.634 29.72C131.621 29.4267 131.114 28.92 131.114 28.2C131.674 23.72 131.954 18.9067 131.954 13.76C131.234 13.76 130.688 13.7867 130.314 13.84H130.274C130.034 13.84 129.888 13.6933 129.834 13.4ZM143.3 13.92C142.606 13.9467 142.1 13.9733 141.78 14C141.486 14 141.34 13.92 141.34 13.76C141.34 13.6 141.42 13.44 141.58 13.28C143.286 11.7067 146.166 10.92 150.22 10.92C151.606 10.92 152.7 11.04 153.5 11.28L153.9 11.4C154.22 11.5333 154.38 11.68 154.38 11.84C154.38 11.9733 154.286 12.08 154.1 12.16C153.38 12.3733 152.686 12.72 152.02 13.2C151.353 13.6533 151.02 13.9733 151.02 14.16L151.26 14.44C152.113 14.92 152.766 15.68 153.22 16.72C153.7 17.76 153.966 18.68 154.02 19.48L154.1 20.72C154.1 23.36 153.366 25.5333 151.9 27.24C150.433 28.9467 148.433 29.8 145.9 29.8C144.62 29.8 143.513 29.5733 142.58 29.12C141.646 28.6667 140.953 28.16 140.5 27.6C140.073 27.0133 139.726 26.36 139.46 25.64C139.14 24.6533 138.98 23.64 138.98 22.6C138.98 21.5333 139.153 20.4667 139.5 19.4C139.873 18.3333 140.286 17.5467 140.74 17.04C141.22 16.5333 141.753 16.12 142.34 15.8C143.086 15.4 143.686 15.2 144.14 15.2C144.593 15.2 144.82 15.2933 144.82 15.48L144.58 15.88C143.993 16.5733 143.566 17.48 143.3 18.6C143.06 19.72 142.94 20.72 142.94 21.6C142.94 22.4533 143.046 23.3067 143.26 24.16C143.473 25.0133 143.713 25.6533 143.98 26.08C144.246 26.48 144.553 26.7867 144.9 27C145.406 27.32 145.94 27.48 146.5 27.48C147.06 27.48 147.606 27.2667 148.14 26.84C148.673 26.3867 149.06 25.8 149.3 25.08C149.78 23.7467 150.02 22.3733 150.02 20.96C150.02 18.72 149.446 16.9867 148.3 15.76C147.18 14.5333 145.513 13.92 143.3 13.92Z" fill="#425D84"/>
</svg>
