<svg width="420" height="140" viewBox="0 0 420 140" fill="none" xmlns="http://www.w3.org/2000/svg">
<rect width="420" height="140" fill="#1E1E1E"/>
<rect width="420" height="140" fill="white"/>
<path d="M119.16 72.44L118.96 64.88C118.96 63.68 118.827 62.7333 118.56 62.04C118.293 61.3467 118.16 60.9733 118.16 60.92C118.16 60.3333 119.053 59.88 120.84 59.56C122.653 59.24 124.027 59.08 124.96 59.08C125.92 59.08 126.44 59.3067 126.52 59.76C128.2 67.2533 129.613 72.4533 130.76 75.36C130.893 75.68 131.027 75.84 131.16 75.84C131.32 75.84 131.453 75.72 131.56 75.48C133.347 70.44 134.92 65.4533 136.28 60.52C136.387 60.2 136.653 59.96 137.08 59.8C137.507 59.6133 138.24 59.44 139.28 59.28C140.347 59.12 141.4 59.04 142.44 59.04C143.48 59.04 144 59.2533 144 59.68C144 59.7067 143.96 59.92 143.88 60.32C143.8 60.6933 143.72 61.16 143.64 61.72C143.56 62.28 143.467 62.96 143.36 63.76C143.12 65.6 142.96 67.72 142.88 70.12C142.827 72.4933 142.8 74.88 142.8 77.28L142.88 81.48C142.88 83.4 143 84.7733 143.24 85.6C143.507 86.4 143.64 86.8667 143.64 87C143.64 87.1067 143.547 87.24 143.36 87.4C142.533 88.0667 141.28 88.4 139.6 88.4C138.533 88.4 137.933 88.04 137.8 87.32C137.72 86.9467 137.68 86.36 137.68 85.56C137.68 84.7333 137.76 82.2267 137.92 78.04C138.08 73.8533 138.16 70.8133 138.16 68.92C138.16 67 138.053 66.04 137.84 66.04C137.813 66.04 137.8 66.0533 137.8 66.08C137.8 66.08 137.76 66.0933 137.68 66.12C137.6 66.1467 137.387 66.56 137.04 67.36C136.72 68.16 136.067 70.1333 135.08 73.28C134.093 76.4267 133.2 79.3733 132.4 82.12C131.6 84.84 131.16 86.3067 131.08 86.52C130.787 87.24 130.227 87.6 129.4 87.6C129 87.6 128.68 87.4533 128.44 87.16C127.587 83.2133 126.067 77.5733 123.88 70.24L122.76 66.6C122.707 66.4667 122.653 66.4 122.6 66.4C122.467 66.4 122.373 66.4933 122.32 66.68C122.213 68.4133 122.16 71.8267 122.16 76.92C122.16 81.9867 122.347 85.1867 122.72 86.52C122.747 86.5733 122.76 86.6533 122.76 86.76C122.76 87.32 122.32 87.7333 121.44 88C120.56 88.24 119.76 88.36 119.04 88.36C118.347 88.36 118 88.2 118 87.88C118 87.8533 118.067 87.64 118.2 87.24C118.6 85.88 118.853 83.9067 118.96 81.32C119.093 78.7333 119.16 75.7733 119.16 72.44ZM159.373 76L159.293 81.12C159.293 84.6667 159.679 86.8 160.453 87.52C160.559 87.6267 160.613 87.7467 160.613 87.88C160.613 88.28 159.746 88.48 158.013 88.48C156.306 88.48 155.399 87.9733 155.293 86.96C155.266 86.72 155.253 86.2267 155.253 85.48L155.413 79.08C155.413 78.8933 155.306 78.8 155.092 78.8C153.813 78.8 152.613 79.16 151.493 79.88C150.373 80.6 149.812 81.52 149.812 82.64C149.812 83.2267 149.973 83.72 150.293 84.12C150.613 84.52 150.999 84.72 151.453 84.72C151.933 84.72 152.319 84.6267 152.613 84.44C152.933 84.2533 153.119 84.1467 153.173 84.12C153.626 84.1733 153.853 84.6533 153.853 85.56C153.853 86.44 153.439 87.16 152.613 87.72C151.786 88.2533 150.919 88.52 150.013 88.52C149.106 88.52 148.319 88.36 147.653 88.04C147.013 87.72 146.546 87.36 146.253 86.96C145.959 86.56 145.719 86.1067 145.533 85.6C145.346 84.9867 145.253 84.4533 145.253 84C145.253 82.1333 145.839 80.64 147.013 79.52C148.186 78.4 149.693 77.6 151.533 77.12C153.959 76.64 155.226 76.2 155.333 75.8C155.413 75.5067 155.453 75.0133 155.453 74.32C155.453 72.9067 154.733 72.2 153.293 72.2C152.679 72.2 152.133 72.4 151.653 72.8C151.173 73.1733 150.933 73.6533 150.933 74.24L151.173 75.2C151.119 75.6533 150.639 75.92 149.733 76L149.293 76.04C148.493 76.04 147.853 75.84 147.373 75.44C146.919 75.04 146.693 74.5067 146.693 73.84C146.693 73.4133 146.826 72.9467 147.093 72.44C147.386 71.9067 147.746 71.48 148.173 71.16C148.599 70.84 149.253 70.56 150.133 70.32C151.039 70.0533 151.906 69.92 152.733 69.92C153.559 69.92 154.199 69.9467 154.653 70C155.106 70.0533 155.719 70.1867 156.493 70.4C157.293 70.5867 157.946 70.96 158.453 71.52C158.986 72.08 159.266 72.68 159.293 73.32C159.346 73.9333 159.373 74.8267 159.373 76ZM173.954 82.52C173.954 83.6667 173.727 84.6667 173.274 85.52C172.847 86.3733 172.354 87 171.794 87.4C171.234 87.8 170.567 88.12 169.794 88.36C168.78 88.68 167.86 88.84 167.034 88.84C165.3 88.84 163.86 88.5067 162.714 87.84C161.567 87.1467 160.994 86.0533 160.994 84.56C160.994 83.68 161.234 82.96 161.714 82.4C162.46 81.5733 163.354 81.16 164.394 81.16C164.714 81.16 164.874 81.3067 164.874 81.6C164.874 81.6267 164.807 81.84 164.674 82.24C164.567 82.6133 164.514 83.0933 164.514 83.68C164.514 84.2667 164.74 84.7867 165.194 85.24C165.674 85.6933 166.247 85.92 166.914 85.92C167.58 85.92 168.114 85.8133 168.514 85.6C168.914 85.36 169.194 85.0667 169.354 84.72C169.594 84.24 169.714 83.7867 169.714 83.36C169.714 82.5867 169.327 81.92 168.554 81.36C167.78 80.8 166.927 80.36 165.994 80.04C165.06 79.72 164.207 79.1867 163.434 78.44C162.66 77.6933 162.274 76.76 162.274 75.64C162.274 73.72 162.874 72.28 164.074 71.32C165.3 70.36 166.954 69.88 169.034 69.88C169.94 69.88 170.887 70.0133 171.874 70.28C172.887 70.52 173.394 70.9467 173.394 71.56C173.394 72.1467 173.287 72.6933 173.074 73.2C172.887 73.7067 172.647 73.96 172.354 73.96C172.194 73.96 172.087 73.9067 172.034 73.8C171.98 73.6667 171.887 73.52 171.754 73.36C171.62 73.2 171.3 73 170.794 72.76C170.287 72.4933 169.847 72.36 169.474 72.36C169.127 72.36 168.887 72.3733 168.754 72.4C168.647 72.4 168.447 72.44 168.154 72.52C167.86 72.5733 167.594 72.6667 167.354 72.8C166.74 73.1467 166.434 73.6533 166.434 74.32C166.434 74.7467 166.527 75.0667 166.714 75.28C166.9 75.4667 167.047 75.6133 167.154 75.72C167.26 75.8267 167.447 75.96 167.714 76.12C167.98 76.2533 168.167 76.3467 168.274 76.4C168.38 76.4533 168.62 76.5733 168.994 76.76C169.367 76.92 169.607 77.0267 169.714 77.08C172.54 78.4133 173.954 80.2267 173.954 82.52ZM188.611 70L188.651 75L188.491 81.92C188.518 82.0267 188.558 82.08 188.611 82.08C188.665 82.08 188.705 82.0533 188.731 82C189.265 81.2533 189.918 80.88 190.691 80.88C191.491 80.88 191.891 81.04 191.891 81.36C191.891 82.3733 192.078 83.16 192.451 83.72C192.851 84.2533 193.398 84.52 194.091 84.52C194.811 84.52 195.491 84.04 196.131 83.08C196.798 82.12 197.131 80.84 197.131 79.24C197.131 78.7067 197.025 78.0667 196.811 77.32C196.385 75.8267 195.585 74.8267 194.411 74.32C193.558 73.9733 192.171 73.8 190.251 73.8C190.038 73.8 189.931 73.6533 189.931 73.36C189.931 71.8667 190.198 71.0933 190.731 71.04C191.451 71.04 192.211 70.8533 193.011 70.48C194.611 69.7333 195.411 68.2 195.411 65.88C195.411 63.3733 193.971 62.12 191.091 62.12L189.851 62.2C189.371 62.3067 189.105 62.5067 189.051 62.8V62.92C188.758 63.9867 188.611 66.3467 188.611 70ZM182.731 88.56L182.811 88.12C183.078 87.64 183.305 85.6933 183.491 82.28C183.678 78.84 183.771 75.64 183.771 72.68C183.771 69.6933 183.705 67.3067 183.571 65.52C183.465 63.7067 183.145 62.4 182.611 61.6C182.505 61.4667 182.451 61.3067 182.451 61.12C182.451 60.9333 182.611 60.7733 182.931 60.64C185.118 59.7867 188.091 59.36 191.851 59.36C192.785 59.36 193.798 59.4933 194.891 59.76C195.985 60 196.878 60.3067 197.571 60.68C198.291 61.0533 198.931 61.6267 199.491 62.4C200.078 63.1733 200.411 64.0933 200.491 65.16C200.491 69.0267 198.891 71.2533 195.691 71.84C195.531 71.8933 195.451 71.96 195.451 72.04C195.451 72.0933 195.518 72.16 195.651 72.24C197.305 72.5067 198.691 73.1733 199.811 74.24C200.371 74.7467 200.878 75.5333 201.331 76.6C201.785 77.6667 202.011 78.8933 202.011 80.28C202.011 82.0667 201.491 83.76 200.451 85.36C199.598 86.6667 198.358 87.6 196.731 88.16C195.825 88.48 194.811 88.64 193.691 88.64C190.891 88.64 189.118 87.7467 188.371 85.96C188.345 85.88 188.305 85.84 188.251 85.84L188.091 86C187.531 87.8667 185.931 88.84 183.291 88.92C182.918 88.92 182.731 88.8 182.731 88.56ZM216.951 76L216.871 81.12C216.871 84.6667 217.257 86.8 218.031 87.52C218.137 87.6267 218.191 87.7467 218.191 87.88C218.191 88.28 217.324 88.48 215.591 88.48C213.884 88.48 212.977 87.9733 212.871 86.96C212.844 86.72 212.831 86.2267 212.831 85.48L212.991 79.08C212.991 78.8933 212.884 78.8 212.671 78.8C211.391 78.8 210.191 79.16 209.071 79.88C207.951 80.6 207.391 81.52 207.391 82.64C207.391 83.2267 207.551 83.72 207.871 84.12C208.191 84.52 208.577 84.72 209.031 84.72C209.511 84.72 209.897 84.6267 210.191 84.44C210.511 84.2533 210.697 84.1467 210.751 84.12C211.204 84.1733 211.431 84.6533 211.431 85.56C211.431 86.44 211.017 87.16 210.191 87.72C209.364 88.2533 208.497 88.52 207.591 88.52C206.684 88.52 205.897 88.36 205.231 88.04C204.591 87.72 204.124 87.36 203.831 86.96C203.537 86.56 203.297 86.1067 203.111 85.6C202.924 84.9867 202.831 84.4533 202.831 84C202.831 82.1333 203.417 80.64 204.591 79.52C205.764 78.4 207.271 77.6 209.111 77.12C211.537 76.64 212.804 76.2 212.911 75.8C212.991 75.5067 213.031 75.0133 213.031 74.32C213.031 72.9067 212.311 72.2 210.871 72.2C210.257 72.2 209.711 72.4 209.231 72.8C208.751 73.1733 208.511 73.6533 208.511 74.24L208.751 75.2C208.697 75.6533 208.217 75.92 207.311 76L206.871 76.04C206.071 76.04 205.431 75.84 204.951 75.44C204.497 75.04 204.271 74.5067 204.271 73.84C204.271 73.4133 204.404 72.9467 204.671 72.44C204.964 71.9067 205.324 71.48 205.751 71.16C206.177 70.84 206.831 70.56 207.711 70.32C208.617 70.0533 209.484 69.92 210.311 69.92C211.137 69.92 211.777 69.9467 212.231 70C212.684 70.0533 213.297 70.1867 214.071 70.4C214.871 70.5867 215.524 70.96 216.031 71.52C216.564 72.08 216.844 72.68 216.871 73.32C216.924 73.9333 216.951 74.8267 216.951 76ZM231.572 77.28L231.732 78.68C231.732 79.1867 231.252 79.44 230.292 79.44C228.345 79.44 227.372 78.7067 227.372 77.24C227.372 76.8933 227.465 76.4133 227.652 75.8C227.839 75.1867 227.932 74.6533 227.932 74.2C227.932 73.7467 227.799 73.36 227.532 73.04C227.265 72.6933 226.879 72.52 226.372 72.52C225.865 72.52 225.425 72.7067 225.052 73.08C224.705 73.4267 224.492 73.7867 224.412 74.16L224.252 74.72C224.092 75.5467 224.012 76.9333 224.012 78.88C224.012 80.8 224.039 82.32 224.092 83.44C224.145 84.5333 224.199 85.2933 224.252 85.72C224.305 86.12 224.332 86.36 224.332 86.44C224.332 87.1067 223.919 87.64 223.092 88.04C222.265 88.4667 221.439 88.68 220.612 88.68C219.785 88.68 219.372 88.5067 219.372 88.16L219.572 86.92C219.945 84.6 220.132 81.5733 220.132 77.84C220.132 74.1067 219.999 71.5733 219.732 70.24C219.732 69.92 220.012 69.76 220.572 69.76C222.012 69.76 222.972 70.2533 223.452 71.24C223.479 71.3467 223.519 71.4 223.572 71.4C223.652 71.4 223.839 71.28 224.132 71.04C225.012 70.32 226.052 69.96 227.252 69.96C227.999 69.96 228.745 70.1067 229.492 70.4C231.012 71.0133 231.772 72.2933 231.772 74.24L231.572 77.28ZM246.013 76L245.933 81.12C245.933 84.6667 246.32 86.8 247.093 87.52C247.2 87.6267 247.253 87.7467 247.253 87.88C247.253 88.28 246.386 88.48 244.653 88.48C242.946 88.48 242.04 87.9733 241.933 86.96C241.906 86.72 241.893 86.2267 241.893 85.48L242.053 79.08C242.053 78.8933 241.946 78.8 241.733 78.8C240.453 78.8 239.253 79.16 238.133 79.88C237.013 80.6 236.453 81.52 236.453 82.64C236.453 83.2267 236.613 83.72 236.933 84.12C237.253 84.52 237.64 84.72 238.093 84.72C238.573 84.72 238.96 84.6267 239.253 84.44C239.573 84.2533 239.76 84.1467 239.813 84.12C240.266 84.1733 240.493 84.6533 240.493 85.56C240.493 86.44 240.08 87.16 239.253 87.72C238.426 88.2533 237.56 88.52 236.653 88.52C235.746 88.52 234.96 88.36 234.293 88.04C233.653 87.72 233.186 87.36 232.893 86.96C232.6 86.56 232.36 86.1067 232.173 85.6C231.986 84.9867 231.893 84.4533 231.893 84C231.893 82.1333 232.48 80.64 233.653 79.52C234.826 78.4 236.333 77.6 238.173 77.12C240.6 76.64 241.866 76.2 241.973 75.8C242.053 75.5067 242.093 75.0133 242.093 74.32C242.093 72.9067 241.373 72.2 239.933 72.2C239.32 72.2 238.773 72.4 238.293 72.8C237.813 73.1733 237.573 73.6533 237.573 74.24L237.813 75.2C237.76 75.6533 237.28 75.92 236.373 76L235.933 76.04C235.133 76.04 234.493 75.84 234.013 75.44C233.56 75.04 233.333 74.5067 233.333 73.84C233.333 73.4133 233.466 72.9467 233.733 72.44C234.026 71.9067 234.386 71.48 234.813 71.16C235.24 70.84 235.893 70.56 236.773 70.32C237.68 70.0533 238.546 69.92 239.373 69.92C240.2 69.92 240.84 69.9467 241.293 70C241.746 70.0533 242.36 70.1867 243.133 70.4C243.933 70.5867 244.586 70.96 245.093 71.52C245.626 72.08 245.906 72.68 245.933 73.32C245.986 73.9333 246.013 74.8267 246.013 76ZM247.834 72.4L247.954 70.8C247.981 70.56 248.168 70.44 248.514 70.44H249.914L249.754 67.24V67.08C249.754 66.4667 250.221 65.88 251.154 65.32C252.088 64.76 252.941 64.48 253.714 64.48C253.954 64.48 254.074 64.5867 254.074 64.8V64.84C253.968 65.56 253.861 67.4133 253.754 70.4C254.928 70.4 255.674 70.3733 255.994 70.32C256.314 70.2667 256.488 70.24 256.514 70.24C256.701 70.24 256.794 70.4 256.794 70.72C256.794 71.04 256.648 71.4533 256.354 71.96C256.061 72.44 255.741 72.6933 255.394 72.72H253.714C253.688 73.6267 253.674 75.16 253.674 77.32C253.674 79.4533 253.688 81.2133 253.714 82.6C253.768 83.9867 253.821 85.04 253.874 85.76C253.928 86.4533 253.981 87.0133 254.034 87.44C254.114 87.8667 254.168 88.1733 254.194 88.36C254.248 88.5467 254.274 88.6667 254.274 88.72C254.274 88.9867 254.101 89.1333 253.754 89.16C252.714 89.16 251.674 89.0133 250.634 88.72C249.621 88.4267 249.114 87.92 249.114 87.2C249.674 82.72 249.954 77.9067 249.954 72.76C249.234 72.76 248.688 72.7867 248.314 72.84H248.274C248.034 72.84 247.888 72.6933 247.834 72.4ZM261.3 72.92C260.606 72.9467 260.1 72.9733 259.78 73C259.486 73 259.34 72.92 259.34 72.76C259.34 72.6 259.42 72.44 259.58 72.28C261.286 70.7067 264.166 69.92 268.22 69.92C269.606 69.92 270.7 70.04 271.5 70.28L271.9 70.4C272.22 70.5333 272.38 70.68 272.38 70.84C272.38 70.9733 272.286 71.08 272.1 71.16C271.38 71.3733 270.686 71.72 270.02 72.2C269.353 72.6533 269.02 72.9733 269.02 73.16L269.26 73.44C270.113 73.92 270.766 74.68 271.22 75.72C271.7 76.76 271.966 77.68 272.02 78.48L272.1 79.72C272.1 82.36 271.366 84.5333 269.9 86.24C268.433 87.9467 266.433 88.8 263.9 88.8C262.62 88.8 261.513 88.5733 260.58 88.12C259.646 87.6667 258.953 87.16 258.5 86.6C258.073 86.0133 257.726 85.36 257.46 84.64C257.14 83.6533 256.98 82.64 256.98 81.6C256.98 80.5333 257.153 79.4667 257.5 78.4C257.873 77.3333 258.286 76.5467 258.74 76.04C259.22 75.5333 259.753 75.12 260.34 74.8C261.086 74.4 261.686 74.2 262.14 74.2C262.593 74.2 262.82 74.2933 262.82 74.48L262.58 74.88C261.993 75.5733 261.566 76.48 261.3 77.6C261.06 78.72 260.94 79.72 260.94 80.6C260.94 81.4533 261.046 82.3067 261.26 83.16C261.473 84.0133 261.713 84.6533 261.98 85.08C262.246 85.48 262.553 85.7867 262.9 86C263.406 86.32 263.94 86.48 264.5 86.48C265.06 86.48 265.606 86.2667 266.14 85.84C266.673 85.3867 267.06 84.8 267.3 84.08C267.78 82.7467 268.02 81.3733 268.02 79.96C268.02 77.72 267.446 75.9867 266.3 74.76C265.18 73.5333 263.513 72.92 261.3 72.92Z" fill="#425D84"/>
</svg>
