<svg width="158" height="31" viewBox="0 0 158 31" fill="none" xmlns="http://www.w3.org/2000/svg">
<path fill-rule="evenodd" clip-rule="evenodd" d="M0.96 5.88L1.16 13.44C1.16 16.7733 1.09333 19.7333 0.96 22.32C0.853333 24.9067 0.6 26.88 0.2 28.24C0.0666667 28.64 0 28.8533 0 28.88C0 29.2 0.346667 29.36 1.04 29.36C1.76 29.36 2.56 29.24 3.44 29C4.32 28.7333 4.76 28.32 4.76 27.76C4.76 27.6533 4.74667 27.5733 4.72 27.52C4.34667 26.1867 4.16 22.9867 4.16 17.92C4.16 12.8267 4.21333 9.41333 4.32 7.68C4.37333 7.49333 4.46667 7.4 4.6 7.4C4.65333 7.4 4.70667 7.46667 4.76 7.6L5.88 11.24C8.06667 18.5733 9.58667 24.2133 10.44 28.16C10.68 28.4533 11 28.6 11.4 28.6C12.2267 28.6 12.7867 28.24 13.08 27.52C13.16 27.3067 13.6 25.84 14.4 23.12C15.2 20.3733 16.0933 17.4267 17.08 14.28C18.0667 11.1333 18.72 9.16 19.04 8.36C19.3867 7.56 19.6 7.14667 19.68 7.12L19.8 7.08C19.8 7.05333 19.8133 7.04 19.84 7.04C20.0533 7.04 20.16 8 20.16 9.92C20.16 11.8133 20.08 14.8533 19.92 19.04C19.76 23.2267 19.68 25.7333 19.68 26.56C19.68 27.36 19.72 27.9467 19.8 28.32C19.9333 29.04 20.5333 29.4 21.6 29.4C23.28 29.4 24.5333 29.0667 25.36 28.4C25.5467 28.24 25.64 28.1067 25.64 28C25.64 27.8667 25.5067 27.4 25.24 26.6C25 25.7733 24.88 24.4 24.88 22.48L24.8 18.28C24.8 15.88 24.8267 13.4933 24.88 11.12C24.96 8.72 25.12 6.6 25.36 4.76C25.4667 3.96 25.56 3.28 25.64 2.72C25.72 2.16 25.8 1.69333 25.88 1.32C25.96 0.919999 26 0.706666 26 0.68C26 0.253332 25.48 0.0399985 24.44 0.0399985C23.4 0.0399985 22.3467 0.119998 21.28 0.279998C20.24 0.439999 19.5067 0.613332 19.08 0.799998C18.6533 0.959998 18.3867 1.2 18.28 1.52C16.92 6.45333 15.3467 11.44 13.56 16.48C13.4533 16.72 13.32 16.84 13.16 16.84C13.0267 16.84 12.8933 16.68 12.76 16.36C11.6133 13.4533 10.2 8.25333 8.52 0.759999C8.44 0.306665 7.92 0.079998 6.96 0.079998C6.02667 0.079998 4.65333 0.239998 2.84 0.559999C1.05333 0.879998 0.16 1.33333 0.16 1.92C0.16 1.97333 0.293333 2.34667 0.56 3.04C0.826667 3.73333 0.96 4.68 0.96 5.88ZM41.2925 22.12L41.3725 17C41.3725 15.8267 41.3458 14.9333 41.2925 14.32C41.2658 13.68 40.9858 13.08 40.4525 12.52C39.9458 11.96 39.2925 11.5867 38.4925 11.4C37.7192 11.1867 37.1058 11.0533 36.6525 11C36.1992 10.9467 35.5592 10.92 34.7325 10.92C33.9058 10.92 33.0392 11.0533 32.1325 11.32C31.2525 11.56 30.5992 11.84 30.1725 12.16C29.7458 12.48 29.3858 12.9067 29.0925 13.44C28.8258 13.9467 28.6925 14.4133 28.6925 14.84C28.6925 15.5067 28.9192 16.04 29.3725 16.44C29.8525 16.84 30.4925 17.04 31.2925 17.04L31.7325 17C32.6392 16.92 33.1192 16.6533 33.1725 16.2L32.9325 15.24C32.9325 14.6533 33.1725 14.1733 33.6525 13.8C34.1325 13.4 34.6792 13.2 35.2925 13.2C36.7325 13.2 37.4525 13.9067 37.4525 15.32C37.4525 16.0133 37.4125 16.5067 37.3325 16.8C37.2258 17.2 35.9592 17.64 33.5325 18.12C31.6925 18.6 30.1858 19.4 29.0125 20.52C27.8392 21.64 27.2525 23.1333 27.2525 25C27.2525 25.4533 27.3458 25.9867 27.5325 26.6C27.7192 27.1067 27.9592 27.56 28.2525 27.96C28.5458 28.36 29.0125 28.72 29.6525 29.04C30.3192 29.36 31.1058 29.52 32.0125 29.52C32.9192 29.52 33.7858 29.2533 34.6125 28.72C35.4392 28.16 35.8525 27.44 35.8525 26.56C35.8525 25.6533 35.6258 25.1733 35.1725 25.12C35.1192 25.1467 34.9325 25.2533 34.6125 25.44C34.3192 25.6267 33.9325 25.72 33.4525 25.72C32.9992 25.72 32.6125 25.52 32.2925 25.12C31.9725 24.72 31.8125 24.2267 31.8125 23.64C31.8125 22.52 32.3725 21.6 33.4925 20.88C34.6125 20.16 35.8125 19.8 37.0925 19.8C37.3058 19.8 37.4125 19.8933 37.4125 20.08L37.2525 26.48C37.2525 27.2267 37.2658 27.72 37.2925 27.96C37.3992 28.9733 38.3058 29.48 40.0125 29.48C41.7458 29.48 42.6125 29.28 42.6125 28.88C42.6125 28.7467 42.5592 28.6267 42.4525 28.52C41.6792 27.8 41.2925 25.6667 41.2925 22.12ZM55.2738 26.52C55.7271 25.6667 55.9538 24.6667 55.9538 23.52C55.9538 21.2267 54.5404 19.4133 51.7137 18.08C51.6071 18.0267 51.3671 17.92 50.9938 17.76L50.2738 17.4L49.7137 17.12C49.4471 16.96 49.2604 16.8267 49.1538 16.72L48.7137 16.28C48.5271 16.0667 48.4338 15.7467 48.4338 15.32C48.4338 14.6533 48.7404 14.1467 49.3538 13.8C49.5938 13.6667 49.8604 13.5733 50.1538 13.52C50.4471 13.44 50.6471 13.4 50.7537 13.4C50.8871 13.3733 51.1271 13.36 51.4738 13.36C51.8471 13.36 52.2871 13.4933 52.7938 13.76C53.3004 14 53.6204 14.2 53.7537 14.36C53.8871 14.52 53.9804 14.6667 54.0338 14.8C54.0871 14.9067 54.1938 14.96 54.3537 14.96C54.6471 14.96 54.8871 14.7067 55.0737 14.2C55.2871 13.6933 55.3937 13.1467 55.3937 12.56C55.3937 11.9467 54.8871 11.52 53.8737 11.28C52.8871 11.0133 51.9404 10.88 51.0337 10.88C48.9538 10.88 47.3004 11.36 46.0737 12.32C44.8737 13.28 44.2738 14.72 44.2738 16.64C44.2738 17.76 44.6604 18.6933 45.4338 19.44C46.2071 20.1867 47.0604 20.72 47.9938 21.04C48.9271 21.36 49.7804 21.8 50.5537 22.36C51.3271 22.92 51.7137 23.5867 51.7137 24.36C51.7137 24.7867 51.5938 25.24 51.3538 25.72C51.1938 26.0667 50.9137 26.36 50.5138 26.6C50.1138 26.8133 49.5804 26.92 48.9137 26.92C48.2471 26.92 47.6738 26.6933 47.1937 26.24C46.7404 25.7867 46.5138 25.2667 46.5138 24.68C46.5138 24.0933 46.5671 23.6133 46.6738 23.24C46.8071 22.84 46.8737 22.6267 46.8737 22.6C46.8737 22.3067 46.7137 22.16 46.3937 22.16C45.3537 22.16 44.4604 22.5733 43.7137 23.4C43.2337 23.96 42.9938 24.68 42.9938 25.56C42.9938 27.0533 43.5671 28.1467 44.7137 28.84C45.8604 29.5067 47.3004 29.84 49.0338 29.84C49.8604 29.84 50.7804 29.68 51.7938 29.36C52.5671 29.12 53.2337 28.8 53.7938 28.4C54.3538 28 54.8471 27.3733 55.2738 26.52ZM74.12 16L74.08 11C74.08 7.34667 74.2267 4.98667 74.52 3.92V3.8C74.5733 3.50666 74.84 3.30667 75.32 3.2L76.56 3.12C79.44 3.12 80.88 4.37333 80.88 6.88C80.88 9.2 80.08 10.7333 78.48 11.48C77.68 11.8533 76.92 12.04 76.2 12.04C75.6667 12.0933 75.4 12.8667 75.4 14.36C75.4 14.6533 75.5067 14.8 75.72 14.8C77.64 14.8 79.0267 14.9733 79.88 15.32C81.0533 15.8267 81.8533 16.8267 82.28 18.32C82.4933 19.0667 82.6 19.7067 82.6 20.24C82.6 21.84 82.2667 23.12 81.6 24.08C80.96 25.04 80.28 25.52 79.56 25.52C78.8667 25.52 78.32 25.2533 77.92 24.72C77.5467 24.16 77.36 23.3733 77.36 22.36C77.36 22.04 76.96 21.88 76.16 21.88C75.3867 21.88 74.7333 22.2533 74.2 23C74.1733 23.0533 74.1333 23.08 74.08 23.08C74.0267 23.08 73.9867 23.0267 73.96 22.92L74.12 16ZM68.28 29.12L68.2 29.56C68.2 29.8 68.3867 29.92 68.76 29.92C71.4 29.84 73 28.8667 73.56 27L73.72 26.84C73.7733 26.84 73.8133 26.88 73.84 26.96C74.5867 28.7467 76.36 29.64 79.16 29.64C80.28 29.64 81.2933 29.48 82.2 29.16C83.8267 28.6 85.0667 27.6667 85.92 26.36C86.96 24.76 87.48 23.0667 87.48 21.28C87.48 19.8933 87.2533 18.6667 86.8 17.6C86.3467 16.5333 85.84 15.7467 85.28 15.24C84.16 14.1733 82.7733 13.5067 81.12 13.24C80.9867 13.16 80.92 13.0933 80.92 13.04C80.92 12.96 81 12.8933 81.16 12.84C84.36 12.2533 85.96 10.0267 85.96 6.16C85.88 5.09333 85.5467 4.17333 84.96 3.4C84.4 2.62667 83.76 2.05333 83.04 1.68C82.3467 1.30667 81.4533 0.999999 80.36 0.759999C79.2667 0.493332 78.2533 0.359999 77.32 0.359999C73.56 0.359999 70.5867 0.786666 68.4 1.64C68.08 1.77333 67.92 1.93333 67.92 2.12C67.92 2.30667 67.9733 2.46667 68.08 2.6C68.6133 3.4 68.9333 4.70666 69.04 6.52C69.1733 8.30667 69.24 10.6933 69.24 13.68C69.24 16.64 69.1467 19.84 68.96 23.28C68.7733 26.6933 68.5467 28.64 68.28 29.12ZM102.339 22.12L102.419 17C102.419 15.8267 102.393 14.9333 102.339 14.32C102.313 13.68 102.033 13.08 101.499 12.52C100.993 11.96 100.339 11.5867 99.5394 11.4C98.766 11.1867 98.1527 11.0533 97.6994 11C97.246 10.9467 96.606 10.92 95.7794 10.92C94.9527 10.92 94.086 11.0533 93.1794 11.32C92.2994 11.56 91.646 11.84 91.2194 12.16C90.7927 12.48 90.4327 12.9067 90.1394 13.44C89.8727 13.9467 89.7394 14.4133 89.7394 14.84C89.7394 15.5067 89.966 16.04 90.4194 16.44C90.8994 16.84 91.5394 17.04 92.3394 17.04L92.7794 17C93.686 16.92 94.166 16.6533 94.2194 16.2L93.9794 15.24C93.9794 14.6533 94.2194 14.1733 94.6994 13.8C95.1794 13.4 95.726 13.2 96.3394 13.2C97.7794 13.2 98.4994 13.9067 98.4994 15.32C98.4994 16.0133 98.4594 16.5067 98.3794 16.8C98.2727 17.2 97.006 17.64 94.5794 18.12C92.7394 18.6 91.2327 19.4 90.0594 20.52C88.886 21.64 88.2994 23.1333 88.2994 25C88.2994 25.4533 88.3927 25.9867 88.5794 26.6C88.766 27.1067 89.006 27.56 89.2994 27.96C89.5927 28.36 90.0594 28.72 90.6994 29.04C91.366 29.36 92.1527 29.52 93.0594 29.52C93.966 29.52 94.8327 29.2533 95.6594 28.72C96.486 28.16 96.8994 27.44 96.8994 26.56C96.8994 25.6533 96.6727 25.1733 96.2194 25.12C96.166 25.1467 95.9794 25.2533 95.6594 25.44C95.366 25.6267 94.9794 25.72 94.4994 25.72C94.046 25.72 93.6594 25.52 93.3394 25.12C93.0194 24.72 92.8594 24.2267 92.8594 23.64C92.8594 22.52 93.4194 21.6 94.5394 20.88C95.6594 20.16 96.8594 19.8 98.1394 19.8C98.3527 19.8 98.4594 19.8933 98.4594 20.08L98.2994 26.48C98.2994 27.2267 98.3127 27.72 98.3394 27.96C98.446 28.9733 99.3527 29.48 101.059 29.48C102.793 29.48 103.659 29.28 103.659 28.88C103.659 28.7467 103.606 28.6267 103.499 28.52C102.726 27.8 102.339 25.6667 102.339 22.12ZM117.201 19.68L117.041 18.28L117.241 15.24C117.241 13.2933 116.481 12.0133 114.961 11.4C114.214 11.1067 113.467 10.96 112.721 10.96C111.521 10.96 110.481 11.32 109.601 12.04C109.307 12.28 109.121 12.4 109.041 12.4C108.987 12.4 108.947 12.3467 108.921 12.24C108.441 11.2533 107.481 10.76 106.041 10.76C105.481 10.76 105.201 10.92 105.201 11.24C105.467 12.5733 105.601 15.1067 105.601 18.84C105.601 22.5733 105.414 25.6 105.041 27.92L104.841 29.16C104.841 29.5067 105.254 29.68 106.081 29.68C106.907 29.68 107.734 29.4667 108.561 29.04C109.387 28.64 109.801 28.1067 109.801 27.44C109.801 27.36 109.774 27.12 109.721 26.72C109.667 26.2933 109.614 25.5333 109.561 24.44C109.507 23.32 109.481 21.8 109.481 19.88C109.481 17.9333 109.561 16.5467 109.721 15.72L109.881 15.16C109.961 14.7867 110.174 14.4267 110.521 14.08C110.894 13.7067 111.334 13.52 111.841 13.52C112.347 13.52 112.734 13.6933 113.001 14.04C113.267 14.36 113.401 14.7467 113.401 15.2C113.401 15.6533 113.307 16.1867 113.121 16.8C112.934 17.4133 112.841 17.8933 112.841 18.24C112.841 19.7067 113.814 20.44 115.761 20.44C116.721 20.44 117.201 20.1867 117.201 19.68ZM131.402 22.12L131.482 17C131.482 15.8267 131.455 14.9333 131.402 14.32C131.375 13.68 131.095 13.08 130.562 12.52C130.055 11.96 129.402 11.5867 128.602 11.4C127.829 11.1867 127.215 11.0533 126.762 11C126.309 10.9467 125.669 10.92 124.842 10.92C124.015 10.92 123.149 11.0533 122.242 11.32C121.362 11.56 120.709 11.84 120.282 12.16C119.855 12.48 119.495 12.9067 119.202 13.44C118.935 13.9467 118.802 14.4133 118.802 14.84C118.802 15.5067 119.029 16.04 119.482 16.44C119.962 16.84 120.602 17.04 121.402 17.04L121.842 17C122.749 16.92 123.229 16.6533 123.282 16.2L123.042 15.24C123.042 14.6533 123.282 14.1733 123.762 13.8C124.242 13.4 124.789 13.2 125.402 13.2C126.842 13.2 127.562 13.9067 127.562 15.32C127.562 16.0133 127.522 16.5067 127.442 16.8C127.335 17.2 126.069 17.64 123.642 18.12C121.802 18.6 120.295 19.4 119.122 20.52C117.949 21.64 117.362 23.1333 117.362 25C117.362 25.4533 117.455 25.9867 117.642 26.6C117.829 27.1067 118.069 27.56 118.362 27.96C118.655 28.36 119.122 28.72 119.762 29.04C120.429 29.36 121.215 29.52 122.122 29.52C123.029 29.52 123.895 29.2533 124.722 28.72C125.549 28.16 125.962 27.44 125.962 26.56C125.962 25.6533 125.735 25.1733 125.282 25.12C125.229 25.1467 125.042 25.2533 124.722 25.44C124.429 25.6267 124.042 25.72 123.562 25.72C123.109 25.72 122.722 25.52 122.402 25.12C122.082 24.72 121.922 24.2267 121.922 23.64C121.922 22.52 122.482 21.6 123.602 20.88C124.722 20.16 125.922 19.8 127.202 19.8C127.415 19.8 127.522 19.8933 127.522 20.08L127.362 26.48C127.362 27.2267 127.375 27.72 127.402 27.96C127.509 28.9733 128.415 29.48 130.122 29.48C131.855 29.48 132.722 29.28 132.722 28.88C132.722 28.7467 132.669 28.6267 132.562 28.52C131.789 27.8 131.402 25.6667 131.402 22.12ZM133.423 11.8L133.303 13.4C133.356 13.6933 133.503 13.84 133.743 13.84H133.783C134.156 13.7867 134.703 13.76 135.423 13.76C135.423 18.9067 135.143 23.72 134.583 28.2C134.583 28.92 135.09 29.4267 136.103 29.72C137.143 30.0133 138.183 30.16 139.223 30.16C139.57 30.1333 139.743 29.9867 139.743 29.72C139.743 29.6667 139.716 29.5467 139.663 29.36C139.636 29.1733 139.583 28.8667 139.503 28.44C139.45 28.0133 139.396 27.4533 139.343 26.76C139.29 26.04 139.236 24.9867 139.183 23.6C139.156 22.2133 139.143 20.4533 139.143 18.32C139.143 16.16 139.156 14.6267 139.183 13.72H140.863C141.21 13.6933 141.53 13.44 141.823 12.96C142.116 12.4533 142.263 12.04 142.263 11.72C142.263 11.4 142.17 11.24 141.983 11.24C141.956 11.24 141.783 11.2667 141.463 11.32C141.143 11.3733 140.396 11.4 139.223 11.4C139.33 8.41333 139.436 6.56 139.543 5.84V5.8C139.543 5.58667 139.423 5.48 139.183 5.48C138.41 5.48 137.556 5.76 136.623 6.32C135.69 6.88 135.223 7.46667 135.223 8.08V8.24L135.383 11.44H133.983C133.636 11.44 133.45 11.56 133.423 11.8ZM145.248 14C145.568 13.9733 146.075 13.9467 146.768 13.92C148.982 13.92 150.648 14.5333 151.768 15.76C152.915 16.9867 153.488 18.72 153.488 20.96C153.488 22.3733 153.248 23.7467 152.768 25.08C152.528 25.8 152.142 26.3867 151.608 26.84C151.075 27.2667 150.528 27.48 149.968 27.48C149.408 27.48 148.875 27.32 148.368 27C148.022 26.7867 147.715 26.48 147.448 26.08C147.182 25.6533 146.942 25.0133 146.728 24.16C146.515 23.3067 146.408 22.4533 146.408 21.6C146.408 20.72 146.528 19.72 146.768 18.6C147.035 17.48 147.462 16.5733 148.048 15.88L148.288 15.48C148.288 15.2933 148.062 15.2 147.608 15.2C147.155 15.2 146.555 15.4 145.808 15.8C145.222 16.12 144.688 16.5333 144.208 17.04C143.755 17.5467 143.342 18.3333 142.968 19.4C142.622 20.4667 142.448 21.5333 142.448 22.6C142.448 23.64 142.608 24.6533 142.928 25.64C143.195 26.36 143.542 27.0133 143.968 27.6C144.422 28.16 145.115 28.6667 146.048 29.12C146.982 29.5733 148.088 29.8 149.368 29.8C151.902 29.8 153.902 28.9467 155.368 27.24C156.835 25.5333 157.568 23.36 157.568 20.72L157.488 19.48C157.435 18.68 157.168 17.76 156.688 16.72C156.235 15.68 155.582 14.92 154.728 14.44L154.488 14.16C154.488 13.9733 154.822 13.6533 155.488 13.2C156.155 12.72 156.848 12.3733 157.568 12.16C157.755 12.08 157.848 11.9733 157.848 11.84C157.848 11.68 157.688 11.5333 157.368 11.4L156.968 11.28C156.168 11.04 155.075 10.92 153.688 10.92C149.635 10.92 146.755 11.7067 145.048 13.28C144.888 13.44 144.808 13.6 144.808 13.76C144.808 13.92 144.955 14 145.248 14Z" fill="#FFEE54"/>
</svg>
